<?xml version="1.0" standalone="no"?>
<!DOCTYPE svg PUBLIC "-//W3C//DTD SVG 20010904//EN"
 "http://www.w3.org/TR/2001/REC-SVG-20010904/DTD/svg10.dtd">
<svg version="1.0" xmlns="http://www.w3.org/2000/svg"
 width="500.000000pt" height="500.000000pt" viewBox="0 0 500.000000 500.000000"
 preserveAspectRatio="xMidYMid meet">

<g transform="translate(0.000000,500.000000) scale(0.100000,-0.100000)"
fill="#000000" stroke="none">
<path  d="M2263 3564 c-3 -9 -1 -25 5 -35 7 -10 12 -32 12 -49 l0 -30 -64 0
c-49 0 -69 -5 -90 -21 -24 -19 -26 -27 -26 -90 l0 -69 -65 0 c-51 0 -65 -3
-65 -15 0 -12 14 -15 65 -15 l65 0 0 -95 0 -95 -65 0 c-83 0 -85 -18 -2 -22
l62 -3 0 -95 0 -95 -29 -3 c-16 -2 -33 1 -39 7 -6 6 -21 11 -34 11 -18 0 -23
-6 -23 -25 0 -30 25 -43 51 -27 10 7 32 12 49 12 l30 0 0 -70 c0 -94 17 -110
112 -110 l68 0 0 -30 c0 -17 -5 -39 -12 -49 -15 -24 -4 -51 22 -51 26 0 37 27
22 51 -7 10 -12 32 -12 49 l0 30 100 0 100 0 0 -65 c0 -37 4 -65 10 -65 6 0
10 28 10 65 l0 65 95 0 95 0 0 -65 c0 -51 3 -65 15 -65 12 0 15 14 15 65 l0
65 64 0 c90 0 105 14 108 105 l3 70 68 3 c37 2 67 7 67 12 0 5 -30 10 -67 12
l-68 3 0 95 0 95 68 3 c37 2 67 7 67 12 0 5 -30 10 -67 12 l-68 3 -3 93 -3 92
36 0 c20 0 45 -5 56 -11 25 -13 49 4 49 33 0 24 -27 35 -51 20 -10 -7 -35 -12
-54 -12 l-35 0 0 74 c0 93 -13 106 -107 106 l-63 0 0 65 c0 51 -3 65 -15 65
-12 0 -15 -14 -15 -65 l0 -65 -95 0 -95 0 0 65 c0 37 -4 65 -10 65 -6 0 -10
-28 -10 -65 l0 -65 -100 0 -100 0 0 30 c0 17 5 39 12 49 15 24 4 51 -22 51
-11 0 -23 -7 -27 -16z m615 -156 c17 -17 17 -719 0 -736 -9 -9 -106 -12 -375
-12 l-363 0 -10 26 c-6 14 -10 166 -10 357 0 285 2 336 16 355 l15 22 358 0
c264 0 360 -3 369 -12z"/>
<path d="M2410 3320 c-11 -11 -20 -27 -20 -35 0 -9 -9 -15 -25 -15 -58 0 -105
-47 -105 -104 0 -13 -9 -31 -20 -41 -22 -20 -27 -64 -9 -82 8 -8 6 -19 -5 -41
-26 -50 -21 -89 16 -125 18 -18 34 -43 36 -57 5 -36 25 -52 79 -62 26 -5 60
-11 76 -15 16 -3 36 1 51 11 23 14 27 14 55 -1 25 -15 35 -16 63 -5 19 6 48
12 64 12 36 0 74 36 74 68 0 12 11 29 24 38 14 8 30 31 36 50 10 29 9 41 -7
72 -16 32 -16 41 -5 64 14 30 3 65 -24 81 -8 4 -14 24 -14 43 0 49 -45 94 -94
94 -29 0 -36 4 -36 20 0 11 -12 27 -26 36 -22 15 -31 16 -60 5 -24 -9 -39 -9
-53 -2 -29 16 -49 13 -71 -9z m80 -36 c6 -14 10 -103 10 -199 l0 -174 -34 6
c-28 4 -39 1 -60 -20 -28 -28 -34 -57 -13 -57 7 0 17 10 22 23 14 31 55 29 74
-4 12 -22 12 -29 0 -55 -15 -32 -59 -44 -84 -24 -8 6 -23 9 -35 5 -32 -10 -70
19 -70 54 0 20 -8 34 -25 45 -37 24 -48 60 -30 95 8 16 21 31 30 34 21 9 19
24 -6 32 -27 9 -22 56 7 69 18 8 21 16 17 47 -4 29 -1 41 17 59 19 19 30 22
71 17 48 -6 49 -6 43 18 -9 36 2 55 31 55 18 0 28 -7 35 -26z m99 12 c7 -8 9
-25 5 -40 -6 -25 -6 -25 43 -20 61 8 88 -16 86 -75 -2 -32 2 -40 23 -49 29
-14 32 -47 4 -64 -26 -16 -25 -22 5 -52 39 -39 29 -97 -21 -116 -19 -8 -24
-17 -24 -44 0 -42 -23 -59 -68 -50 -17 4 -32 1 -36 -5 -10 -16 -52 -13 -70 5
-13 13 -16 42 -16 158 l0 143 30 -5 c40 -6 80 21 80 53 0 29 -15 33 -23 6 -8
-31 -40 -43 -65 -25 -19 13 -22 25 -22 93 0 46 5 82 12 89 16 16 43 15 57 -2z"/>
<path d="M2387 3174 c-3 -4 -2 -15 4 -26 15 -28 -7 -51 -43 -44 -15 3 -28 2
-28 -2 0 -15 24 -32 47 -32 13 0 28 -9 35 -20 7 -11 16 -20 20 -20 12 0 10 38
-2 45 -6 3 -7 17 -4 31 11 43 -8 88 -29 68z"/>
<path d="M2573 2973 c-27 -10 -13 -31 20 -29 29 1 32 -2 34 -29 0 -16 2 -34 2
-39 2 -22 31 20 31 46 0 28 2 29 30 23 29 -6 42 6 21 20 -12 7 -122 13 -138 8z"/>
<path d="M630 1540 l0 -40 -40 0 -40 0 0 -168 c0 -261 11 -272 272 -272 l168
0 0 40 0 40 40 0 40 0 0 60 c0 37 -7 74 -16 92 -15 29 -15 34 0 59 20 34 21
121 1 159 -8 15 -27 38 -41 49 -25 20 -39 21 -205 21 l-179 0 0 -40z m342 -57
c24 -22 24 -77 -2 -103 -18 -18 -33 -20 -156 -20 l-135 0 3 -37 3 -38 135 -3
c161 -3 170 -8 170 -89 l0 -53 -160 0 c-212 0 -200 -12 -200 200 l0 160 162 0
c136 0 164 -3 180 -17z"/>
<path d="M1200 1540 l0 -40 220 0 220 0 0 40 0 40 -220 0 -220 0 0 -40z"/>
<path d="M1760 1543 c0 -32 5 -41 30 -55 23 -13 46 -51 105 -172 76 -157 116
-216 166 -242 47 -24 59 -19 59 24 0 31 -5 41 -25 52 -33 18 -66 70 -120 190
-25 56 -56 118 -69 138 -33 53 -92 102 -121 102 -22 0 -25 -4 -25 -37z"/>
<path d="M2120 1360 l0 -220 40 0 40 0 0 220 0 220 -40 0 -40 0 0 -220z"/>
<path d="M2240 1450 l0 -130 40 0 40 0 0 130 0 130 -40 0 -40 0 0 -130z"/>
<path d="M2680 1320 l0 -260 40 0 40 0 0 260 0 260 -40 0 -40 0 0 -260z"/>
<path d="M2880 1540 l0 -40 -40 0 -40 0 0 -220 0 -220 40 0 40 0 0 85 0 85
155 0 155 0 0 40 0 40 -155 0 -155 0 0 95 0 95 168 0 c117 0 172 -4 180 -12 9
-9 12 -72 12 -220 l0 -208 40 0 40 0 0 216 c0 309 4 304 -264 304 l-176 0 0
-40z"/>
<path d="M3429 1565 c-56 -31 -64 -56 -67 -230 -3 -181 5 -211 67 -252 32 -22
44 -23 202 -23 l169 0 0 40 0 40 -158 0 c-121 0 -163 3 -178 14 -17 13 -19 29
-22 156 -5 202 -18 190 208 190 l180 0 0 40 0 40 -187 0 c-143 -1 -194 -4
-214 -15z"/>
<path d="M4010 1540 l0 -40 -40 0 -40 0 0 -220 0 -220 40 0 40 0 0 85 0 85
150 0 150 0 0 40 0 40 -150 0 -150 0 0 95 0 95 164 0 c159 0 165 -1 180 -22
13 -19 16 -57 16 -220 l0 -198 40 0 40 0 0 205 c0 313 -1 315 -267 315 l-173
0 0 -40z"/>
<path d="M1110 1338 c0 -184 8 -215 69 -255 33 -22 42 -23 247 -23 l214 0 0
40 0 40 -202 0 c-112 0 -208 4 -214 8 -28 18 -34 56 -34 201 l0 151 -40 0 -40
0 0 -162z"/>
<path d="M1680 1280 l0 -220 40 0 40 0 0 220 0 220 -40 0 -40 0 0 -220z"/>
<path d="M1250 1320 l0 -40 165 0 165 0 0 40 0 40 -165 0 -165 0 0 -40z"/>
<path d="M3570 1320 l0 -40 120 0 120 0 0 -70 0 -70 40 0 40 0 0 110 0 110
-160 0 -160 0 0 -40z"/>
<path d="M2303 1300 c-48 -29 -63 -67 -63 -160 l0 -80 40 0 40 0 0 73 c0 105
2 107 173 107 l137 0 0 40 0 40 -147 0 c-129 0 -152 -3 -180 -20z"/>
</g>
</svg>
