<svg xmlns="http://www.w3.org/2000/svg" width="500" height="500" viewBox="0 0 500 500" version="1.1"><path d="M 226.750 142.080 C 224.850 143.187, 224.390 146.505, 226 147.500 C 226.550 147.840, 227 149.666, 227 151.559 C 227 155, 227 155, 220.611 155 C 211.509 155, 209.910 156.520, 209.246 165.806 C 208.731 173, 208.731 173, 202.366 173 C 197.374 173, 196 173.324, 196 174.500 C 196 175.679, 197.389 176, 202.500 176 L 209 176 209 184.952 L 209 193.905 202.750 194.202 C 197.993 194.429, 196.500 194.858, 196.500 196 C 196.500 197.142, 197.993 197.571, 202.750 197.798 L 209 198.095 209 207.048 C 209 215.884, 208.968 216, 206.547 216 C 205.198 216, 202.961 215.484, 201.577 214.853 C 198.632 213.512, 196 215.038, 196 218.087 C 196 220.482, 199.778 222.622, 201.307 221.093 C 201.908 220.492, 203.823 220, 205.563 220 C 208.726 220, 208.726 220, 209.252 226.548 C 209.982 235.642, 211.399 237, 220.155 237 C 227 237, 227 237, 227 239.953 C 227 241.577, 226.470 244.069, 225.823 245.490 C 224.858 247.608, 224.928 248.356, 226.211 249.640 C 229.335 252.763, 234.105 248.932, 231.996 244.993 C 231.448 243.969, 231 241.752, 231 240.066 C 231 237, 231 237, 239.954 237 L 248.909 237 249.204 243.670 C 249.392 247.893, 249.959 250.492, 250.750 250.754 C 251.671 251.058, 252 249.304, 252 244.083 L 252 237 261.454 237 L 270.909 237 271.204 243.509 C 271.587 251.939, 273.413 251.939, 273.796 243.509 C 274.091 237, 274.091 237, 281.007 237 C 290.231 237, 292 235.280, 292 226.311 C 292 220, 292 220, 298.500 220 C 304.333 220, 305 219.795, 305 218 C 305 216.205, 304.333 216, 298.500 216 L 292 216 292 207 L 292 198 298.500 198 C 304.333 198, 305 197.795, 305 196 C 305 194.205, 304.333 194, 298.500 194 L 292 194 292 185 C 292 176, 292 176, 295.014 176 C 296.671 176, 298.861 176.521, 299.881 177.158 C 302.737 178.941, 305.190 177.499, 304.817 174.256 C 304.568 172.090, 303.912 171.432, 301.750 171.184 C 300.238 171.010, 299 171.347, 299 171.934 C 299 172.520, 297.425 173, 295.500 173 C 292 173, 292 173, 292 166.174 C 292 156.874, 290.110 155, 280.731 155 C 274.091 155, 274.091 155, 273.796 148.491 C 273.633 144.911, 273.050 141.982, 272.500 141.982 C 271.950 141.982, 271.367 144.911, 271.204 148.491 L 270.909 155 261.500 155 L 252.091 155 251.796 148.250 C 251.633 144.537, 251.050 141.500, 250.500 141.500 C 249.950 141.500, 249.367 144.537, 249.204 148.250 L 248.909 155 239.849 155 C 230.790 155, 230.790 155, 231.233 151.250 C 231.477 149.188, 232 146.771, 232.396 145.879 C 232.832 144.897, 232.473 143.616, 231.486 142.629 C 229.605 140.748, 229.132 140.693, 226.750 142.080 M 214.750 159.080 C 213.135 160.021, 213 162.857, 213 195.850 C 213 222.322, 213.311 231.911, 214.200 232.800 C 215.694 234.294, 284.653 234.504, 287 233.022 C 289.318 231.558, 289.798 163.867, 287.515 160.382 C 285.954 158, 285.954 158, 251.227 158.030 C 229.506 158.049, 215.845 158.443, 214.750 159.080 M 240.655 167.829 C 239.745 168.835, 239 170.410, 239 171.329 C 239 172.579, 238.099 173, 235.423 173 C 230.517 173, 226 177.465, 226 182.316 C 226 184.337, 225.426 186.006, 224.626 186.313 C 222.354 187.185, 221.012 192.390, 222.361 195.096 C 223.315 197.010, 223.189 198.132, 221.677 201.188 C 220.101 204.373, 220 205.469, 221.001 208.503 C 221.649 210.465, 223.263 212.782, 224.589 213.650 C 225.915 214.519, 227 215.832, 227 216.568 C 227 221.300, 232.597 225.862, 236.992 224.712 C 238.095 224.424, 239.250 224.596, 239.558 225.094 C 240.465 226.561, 247.642 226.136, 248.969 224.537 C 250.032 223.256, 250.483 223.270, 252.584 224.647 C 254.247 225.736, 256.141 226.030, 258.743 225.601 C 260.809 225.261, 263.890 224.996, 265.589 225.012 C 269.511 225.049, 274 221.588, 274 218.527 C 274 217.201, 275.505 214.695, 277.500 212.700 C 281.477 208.723, 282.155 204.094, 279.346 200.084 C 278.039 198.218, 277.934 197.335, 278.846 195.875 C 280.733 192.853, 280.195 189.299, 277.534 187.205 C 276.178 186.138, 275.320 185.013, 275.629 184.704 C 276.785 183.549, 274.782 178.054, 272.300 175.573 C 270.627 173.900, 268.627 173, 266.583 173 C 264.018 173, 263.233 172.455, 262.323 170.045 C 261.004 166.551, 257.026 165.174, 252.828 166.759 C 251.165 167.386, 249.777 167.449, 249.445 166.912 C 248.441 165.286, 242.385 165.918, 240.655 167.829 M 243.119 170.357 C 242.472 171.137, 242.260 173.050, 242.621 174.857 C 243.112 177.311, 242.907 178, 241.684 178 C 240.823 178, 239.840 177.550, 239.500 177 C 238.350 175.140, 233.924 175.985, 231.354 178.555 C 229.234 180.675, 228.909 181.699, 229.446 184.562 C 230.019 187.621, 229.803 188.124, 227.547 188.982 C 224.460 190.156, 224.158 193.479, 227 195 C 229.655 196.421, 229.522 197.802, 226.500 200.179 C 222.484 203.338, 223.267 209.052, 228.055 211.528 C 230.187 212.631, 230.847 213.675, 230.785 215.847 C 230.665 220.095, 231.728 221.097, 236.085 220.840 C 238.243 220.713, 240.547 221.147, 241.204 221.804 C 244.326 224.926, 249 221.777, 249 216.551 C 249 210.590, 243.708 209.037, 241.203 214.262 C 239.565 217.681, 238 217.797, 238 214.500 C 238 210.888, 241.332 208, 245.500 208 C 249 208, 249 208, 249 189.700 C 249 171.471, 248.573 169, 245.422 169 C 244.775 169, 243.738 169.611, 243.119 170.357 M 254 169.979 C 252.115 171.171, 251.845 186.245, 253.677 188.077 C 255.352 189.752, 259.661 188.405, 260.287 186.011 C 260.941 183.508, 264 183.344, 264 185.811 C 264 188.013, 260.800 191.611, 258.072 192.477 C 256.974 192.826, 255.159 192.620, 254.038 192.020 C 252.036 190.949, 252 191.159, 252 203.900 C 252 221.279, 253.591 224.961, 259.814 221.973 C 261.291 221.264, 263.760 220.791, 265.300 220.923 C 269.080 221.245, 271 219.417, 271 215.494 C 271 213.133, 271.523 212.096, 272.898 211.737 C 273.942 211.464, 275.581 210.043, 276.540 208.579 C 278.001 206.349, 278.087 205.486, 277.069 203.252 C 276.401 201.786, 274.987 199.979, 273.927 199.236 C 271.459 197.508, 271.482 196.299, 274 195.500 C 276.907 194.577, 276.653 190.255, 273.610 188.868 C 271.546 187.928, 271.289 187.264, 271.726 184.006 C 272.376 179.157, 269.254 175.513, 265.151 176.330 C 258.320 177.692, 258.476 177.746, 258.833 174.110 C 259.255 169.811, 257.134 167.998, 254 169.979 M 238.540 185.360 C 239.033 187.989, 238.797 188.864, 237.458 189.378 C 236.517 189.739, 235.109 189.506, 234.331 188.860 C 233.290 187.995, 232.620 187.980, 231.800 188.800 C 230.359 190.241, 232.487 193, 235.041 193 C 237.870 193, 240 194.094, 240 195.548 C 240 197.395, 241.965 198.435, 243.172 197.228 C 243.836 196.564, 243.669 195.261, 242.673 193.334 C 241.586 191.233, 241.456 189.936, 242.198 188.610 C 243.489 186.304, 241.716 182, 239.476 182 C 238.240 182, 238.042 182.708, 238.540 185.360 M 255.902 203.618 C 254.129 205.755, 256.309 207.818, 258.458 206.035 C 260.860 204.041, 263.265 206.517, 262.465 210.159 C 261.981 212.363, 262.202 213, 263.453 213 C 265.265 213, 267.019 209.239, 266.204 207.100 C 265.797 206.032, 266.287 205.855, 268.274 206.354 C 271.232 207.096, 272.735 205.591, 271.057 203.568 C 269.454 201.637, 257.514 201.676, 255.902 203.618 M 63 345 C 63 349, 63 349, 59 349 C 55 349, 55 349, 55 366.550 C 55 386.089, 55.614 388.574, 61.299 392.040 C 64.156 393.783, 66.409 393.993, 82.250 393.996 C 100 394, 100 394, 100 390 C 100 386, 100 386, 104 386 C 108 386, 108 386, 107.974 380.750 C 107.959 377.863, 107.151 373.727, 106.178 371.561 C 104.483 367.786, 104.484 367.474, 106.204 364.099 C 108.618 359.366, 108.466 354.332, 105.750 349.036 C 102.044 341.809, 99.429 341, 79.766 341 C 63 341, 63 341, 63 345 M 119 345 C 119 349, 119 349, 115 349 C 111 349, 111 349, 111 366.032 C 111 385.282, 111.815 388.697, 117.190 391.974 C 120.241 393.835, 122.199 393.993, 142.250 393.996 L 164 394 164 389.500 L 164 385 143.200 385 C 128.356 385, 122.056 384.656, 121.200 383.800 C 120.365 382.965, 120 377.644, 120 366.300 L 120 350 142 350 L 164 350 164 345.500 L 164 341 141.500 341 C 119 341, 119 341, 119 345 M 175 344.875 C 175 349, 175 349, 171 349 C 167 349, 167 349, 167 371.500 L 167 394 171.481 394 L 175.962 394 176.231 371.909 C 176.500 349.817, 176.500 349.817, 179.321 352.037 C 181.089 353.428, 184.594 359.336, 188.718 367.878 C 198.439 388.012, 203.249 393.985, 209.750 393.996 C 211.709 394, 212 393.483, 212 390 C 212 386, 212 386, 216 386 C 220 386, 220 386, 220 363.500 L 220 341 215.500 341 L 211 341 211 363 C 211 375.100, 210.628 385, 210.174 385 C 207.798 385, 203.001 377.447, 197.474 365 C 190.507 349.313, 185.147 342.779, 178.084 341.367 C 175.037 340.757, 175 340.800, 175 344.875 M 223 354.500 C 223 368, 223 368, 227.500 368 C 232 368, 232 368, 232 354.500 C 232 341, 232 341, 227.500 341 C 223 341, 223 341, 223 354.500 M 268 367.500 L 268 394 272.500 394 L 277 394 277 367.500 L 277 341 272.500 341 L 268 341 268 367.500 M 288 344.937 C 288 349, 288 349, 284 349 C 280 349, 280 349, 280 371.500 L 280 394 284.500 394 C 289 394, 289 394, 289 386 L 289 378 304 378 L 319 378 319 373 L 319 368 304 368 L 289 368 289 359 L 289 350 304.845 350 C 318.925 350, 320.874 350.204, 322.345 351.829 C 323.770 353.403, 324 356.462, 324 373.829 L 324 394 328.500 394 L 333 394 332.998 373.250 C 332.997 350.423, 332.438 347.800, 326.680 343.571 C 324.120 341.691, 322.209 341.471, 305.930 341.187 C 288 340.874, 288 340.874, 288 344.937 M 343.500 342.861 C 336.660 347.085, 336.531 347.504, 336.186 366.529 C 335.835 385.922, 336.446 388.472, 342.299 392.040 C 345.156 393.783, 347.409 393.993, 363.250 393.996 C 381 394, 381 394, 381 390 C 381 386, 381 386, 385 386 C 389 386, 389 386, 389 374.500 L 389 363 373 363 L 357 363 357 367.500 C 357 372, 357 372, 368.500 372 L 380 372 380 378.500 L 380 385 363.700 385 C 352.356 385, 347.035 384.635, 346.200 383.800 C 345.375 382.975, 345 377.994, 345 367.871 C 345 355.815, 345.285 352.858, 346.571 351.571 C 347.883 350.260, 351.106 350, 366.071 350 L 384 350 384 345.500 L 384 341 365.250 341.004 C 348.746 341.007, 346.141 341.229, 343.500 342.861 M 400 345 C 400 349, 400 349, 396 349 C 392 349, 392 349, 392 371.500 L 392 394 396.500 394 C 401 394, 401 394, 401 386.026 L 401 378.052 416.250 377.776 C 431.500 377.500, 431.500 377.500, 431.500 373 C 431.500 368.500, 431.500 368.500, 416.250 368.224 L 401 367.948 401 358.974 L 401 350 416.566 350 C 425.383 350, 432.970 350.449, 434.066 351.035 C 435.884 352.008, 436 353.331, 436 373.035 L 436 394 440.500 394 L 445 394 445 372.368 C 445 341.161, 444.856 341, 417.099 341 C 400 341, 400 341, 400 345 M 64 366.300 C 64 377.644, 64.365 382.965, 65.200 383.800 C 66.035 384.635, 71.356 385, 82.700 385 C 99 385, 99 385, 99 381.434 C 99 377.772, 97.546 374.064, 95.600 372.765 C 94.995 372.361, 88.537 372.024, 81.250 372.015 C 68 372, 68 372, 68 367.500 C 68 363, 68 363, 81.943 363 C 95.218 363, 95.961 362.893, 97.443 360.777 C 99.567 357.746, 99.398 354.398, 97 352 C 95.172 350.172, 93.667 350, 79.500 350 L 64 350 64 366.300 M 124 367.500 L 124 372 141.500 372 L 159 372 159 367.500 L 159 363 141.500 363 L 124 363 124 367.500 M 232.500 368.506 C 225.619 370.947, 223.016 376.222, 223.006 387.750 C 223 394, 223 394, 227.391 394 C 231.781 394, 231.781 394, 232.159 386.532 C 232.373 382.287, 233.088 378.511, 233.815 377.782 C 234.699 376.896, 239.408 376.399, 249.047 376.174 C 263 375.849, 263 375.849, 263 371.424 C 263 367, 263 367, 249.750 367.044 C 240.960 367.073, 235.153 367.565, 232.500 368.506" stroke="none" fill="#040c1c" fill-rule="evenodd"/><path d="M 232.500 74.043 C 222.666 75.567, 209.100 79.830, 199.266 84.486 C 175.416 95.778, 155.509 115.247, 143.527 139 C 125.649 174.437, 127.311 220.138, 147.690 253.500 C 155.966 267.048, 169.130 281.122, 182.110 290.302 C 211.864 311.342, 252.220 317.293, 287.344 305.819 C 310.933 298.113, 333.686 281.112, 347.869 260.595 C 355.002 250.278, 362.321 234.587, 365.641 222.500 C 368.212 213.139, 368.387 211.223, 368.384 192.500 C 368.382 174.017, 368.181 171.757, 365.737 162.706 C 353.676 118.034, 319.240 85.322, 273.838 75.407 C 265.172 73.515, 241.048 72.719, 232.500 74.043 M 233.532 81.049 C 185.268 88.599, 147.882 125.541, 139.422 174.039 C 137.061 187.580, 137.906 207.041, 141.441 220.500 C 144.592 232.497, 152.937 250.036, 159.758 259 C 167.550 269.241, 182.523 282.849, 192.484 288.744 C 211.257 299.853, 228.304 304.395, 251 304.332 C 270.893 304.278, 283.599 301.259, 301.188 292.408 C 312.361 286.786, 319.680 281.439, 329.046 272.059 C 343.415 257.667, 353.770 239.723, 359.183 219.832 C 361.174 212.516, 361.448 209.183, 361.425 192.500 C 361.400 175.038, 361.180 172.693, 358.699 163.523 C 348.199 124.710, 317.192 93.766, 278.465 83.451 C 270.378 81.297, 265.768 80.733, 254 80.456 C 246.025 80.269, 236.814 80.535, 233.532 81.049 M 260.250 86.250 C 260.880 88.142, 264 88.411, 264 86.573 C 264 85.646, 263.145 85, 261.917 85 C 260.695 85, 260.005 85.517, 260.250 86.250 M 269.461 87.064 C 268.514 88.595, 269.474 89.215, 272.164 88.809 C 274.500 88.456, 274.500 88.456, 272.311 87.225 C 270.785 86.368, 269.921 86.319, 269.461 87.064 M 278 89.893 C 278 91.067, 280.924 92.165, 282.107 91.434 C 282.616 91.119, 282.774 90.443, 282.457 89.931 C 281.722 88.741, 278 88.710, 278 89.893 M 236 91.732 C 223.583 93.195, 206.111 100.007, 194.003 108.106 C 174.219 121.339, 159.423 141.774, 152.447 165.500 C 148.682 178.308, 147.958 198.472, 150.779 212 C 155.853 236.341, 168.489 256.999, 187.383 271.847 C 199.753 281.567, 210.990 287.066, 226.784 291.130 C 239.556 294.417, 259.818 294.393, 273 291.076 C 285.796 287.856, 296.329 283.298, 306.248 276.687 C 316.995 269.525, 319.430 266.971, 317.730 264.645 C 316.575 263.066, 315.851 263.403, 309.482 268.483 C 301.007 275.243, 287.614 281.994, 275.500 285.612 C 267.491 288.004, 264.793 288.309, 251 288.376 C 238.260 288.438, 233.986 288.069, 227 286.300 C 193.996 277.947, 167.516 252.484, 157.312 219.288 C 154.815 211.166, 154.606 209.135, 154.555 192.500 C 154.507 176.642, 154.772 173.548, 156.787 166.500 C 164.286 140.269, 182.977 117.961, 207.500 105.976 C 220.511 99.617, 230.001 97.049, 243.250 96.305 C 253.696 95.717, 254 95.634, 254 93.350 C 254 91.085, 253.739 91.006, 246.750 91.160 C 242.762 91.248, 237.925 91.506, 236 91.732 M 287 92.893 C 287 94.067, 289.924 95.165, 291.107 94.434 C 291.616 94.119, 291.774 93.443, 291.457 92.931 C 290.722 91.741, 287 91.710, 287 92.893 M 296.404 96.155 C 296.041 96.743, 296.364 97.616, 297.122 98.096 C 299.104 99.352, 300 99.200, 300 97.607 C 300 95.837, 297.279 94.739, 296.404 96.155 M 197.496 98.379 C 196.142 99.369, 196.006 99.885, 196.944 100.466 C 197.653 100.903, 198.840 100.588, 199.692 99.737 C 201.653 97.776, 199.848 96.660, 197.496 98.379 M 158.315 105.253 C 141.862 122.046, 130.535 143.883, 125.510 168.500 C 122.967 180.956, 123.167 204.793, 125.924 217.934 C 135.988 265.903, 171.674 303.228, 219.367 315.668 C 232.683 319.141, 256.621 320.054, 270.636 317.624 C 296.669 313.109, 318.538 302.143, 337.191 284.249 C 360.214 262.165, 373.341 235.272, 376.486 203.750 C 377.118 197.408, 377.036 197, 375.125 197 C 373.592 197, 372.975 197.802, 372.623 200.250 C 372.366 202.037, 371.691 206.875, 371.124 211 C 367.601 236.619, 354.387 261.833, 334.543 280.804 C 320.498 294.231, 305.398 303.315, 287.924 308.848 C 273.725 313.345, 266.121 314.458, 249.500 314.473 C 228.741 314.493, 215.147 311.434, 196.500 302.548 C 162.047 286.129, 136.208 251.807, 129.548 213.615 C 127.596 202.421, 127.555 181.814, 129.463 170.871 C 133.473 147.878, 144.808 125.243, 160.333 109.227 C 166.543 102.820, 167.207 101.779, 165.909 100.480 C 164.611 99.182, 163.707 99.751, 158.315 105.253 M 304.218 101.154 C 304.464 101.895, 305.468 102.655, 306.448 102.846 C 307.588 103.066, 308.069 102.706, 307.782 101.846 C 307.536 101.105, 306.532 100.345, 305.552 100.154 C 304.412 99.934, 303.931 100.294, 304.218 101.154 M 261.388 102.431 C 260.520 104.693, 260.894 104.923, 268.148 106.589 C 271.642 107.391, 277.299 109.041, 280.720 110.254 C 285.662 112.007, 287.194 112.206, 288.177 111.223 C 290.102 109.298, 287.558 107.475, 279 104.642 C 268.228 101.077, 262.198 100.320, 261.388 102.431 M 189.074 103.411 C 188.273 104.376, 188.235 105.027, 188.951 105.470 C 190.348 106.333, 192 105.233, 192 103.441 C 192 101.605, 190.585 101.590, 189.074 103.411 M 312 106.500 C 312 107.325, 312.188 108, 312.418 108 C 312.648 108, 313.548 108.273, 314.418 108.607 C 315.427 108.994, 316 108.671, 316 107.714 C 316 106.889, 315.288 105.941, 314.418 105.607 C 312.183 104.749, 312 104.817, 312 106.500 M 181.500 109 C 180.419 110.749, 182.022 112.227, 183.589 110.926 C 184.365 110.282, 185 109.360, 185 108.878 C 185 107.672, 182.262 107.768, 181.500 109 M 241.500 109.655 C 228.561 111.187, 215.264 115.987, 204.459 123.027 C 196.727 128.065, 183.688 141.580, 179.145 149.266 C 170.751 163.470, 167.592 175.357, 167.655 192.500 C 167.711 207.847, 169.683 216.526, 176.012 229.281 C 188.212 253.870, 214.104 272.230, 239.968 274.634 C 246.203 275.213, 246.739 275.107, 247.241 273.188 C 247.966 270.414, 247.370 270, 242.647 270 C 233.421 270, 216.545 263.906, 206.325 256.884 C 170.439 232.227, 161.383 182.646, 186.371 147.628 C 192.176 139.493, 203.029 129.421, 211.051 124.724 C 224.860 116.640, 243.057 112.845, 258.602 114.808 C 276.843 117.112, 291.366 123.895, 303.972 136 C 319.845 151.242, 328.010 170.687, 327.993 193.208 C 327.979 211.613, 320.820 230.360, 308.790 243.487 C 303.052 249.750, 302.801 250.228, 304.420 251.816 C 306.036 253.400, 306.480 253.138, 311.885 247.419 C 340.939 216.677, 339.901 165.177, 309.607 134.464 C 291.465 116.071, 265.917 106.764, 241.500 109.655 M 319.570 111.887 C 318.917 112.944, 321.783 115.550, 322.648 114.686 C 323.481 113.852, 322.276 111, 321.090 111 C 320.556 111, 319.871 111.399, 319.570 111.887 M 174.971 115.535 C 173.234 117.628, 174.682 118.746, 176.620 116.809 C 177.555 115.874, 177.794 114.991, 177.209 114.629 C 176.669 114.295, 175.662 114.703, 174.971 115.535 M 242 118.836 C 240.443 119.306, 239.500 120.327, 239.500 121.545 C 239.500 123.357, 240.255 123.502, 249.814 123.526 C 257.156 123.544, 260.442 123.172, 261.221 122.234 C 262.015 121.277, 262.007 120.607, 261.194 119.794 C 259.867 118.467, 245.590 117.754, 242 118.836 M 326 118.878 C 326 119.360, 326.635 120.282, 327.411 120.926 C 328.978 122.227, 330.581 120.749, 329.500 119 C 328.738 117.768, 326 117.672, 326 118.878 M 305.249 121.151 C 304.380 122.020, 306.173 124.508, 312.549 131.281 C 317.197 136.219, 321 140.650, 321 141.129 C 321 142.359, 324.749 142.216, 325.527 140.957 C 326.355 139.617, 322.173 134.149, 314.281 126.250 C 307.696 119.658, 307.086 119.314, 305.249 121.151 M 168.345 122.543 C 168.019 123.392, 168.004 124.337, 168.310 124.643 C 169.186 125.519, 171 124.034, 171 122.441 C 171 120.522, 169.092 120.596, 168.345 122.543 M 215.881 126.797 C 207.965 130.959, 205.795 133.195, 207.761 135.161 C 209.514 136.914, 226.367 127.984, 226.820 125.061 C 227.304 121.939, 224.179 122.435, 215.881 126.797 M 273.649 124.471 C 273.028 126.090, 275.426 129, 277.380 129 C 278.061 129, 281.262 130.592, 284.493 132.538 C 290.791 136.331, 293.500 136.632, 293.500 133.540 C 293.500 132.149, 291.261 130.409, 285.500 127.323 C 276.918 122.726, 274.539 122.153, 273.649 124.471 M 332 125.878 C 332 127.039, 334.909 129.424, 335.548 128.786 C 336.453 127.880, 334.814 125, 333.393 125 C 332.627 125, 332 125.395, 332 125.878 M 162.583 129.643 C 162.237 130.547, 162.159 131.492, 162.410 131.743 C 163.205 132.538, 165 130.942, 165 129.441 C 165 127.479, 163.361 127.617, 162.583 129.643 M 338.015 133.750 C 338.024 134.162, 338.449 135.162, 338.961 135.971 C 340.113 137.793, 341.465 136.653, 340.655 134.543 C 340.057 132.985, 337.987 132.363, 338.015 133.750 M 157.345 137.543 C 157.019 138.392, 157.004 139.337, 157.310 139.643 C 158.186 140.519, 160 139.034, 160 137.441 C 160 135.522, 158.092 135.596, 157.345 137.543 M 343.154 142.552 C 343.345 143.532, 344.105 144.536, 344.846 144.782 C 345.706 145.069, 346.066 144.588, 345.846 143.448 C 345.655 142.468, 344.895 141.464, 344.154 141.218 C 343.294 140.931, 342.934 141.412, 343.154 142.552 M 191.734 147.250 C 186.661 153.593, 183.735 158.868, 184.371 160.525 C 185.478 163.410, 187.989 161.920, 191.580 156.250 C 193.582 153.088, 196.128 149.510, 197.237 148.301 C 199.388 145.954, 199.032 143, 196.598 143 C 195.793 143, 193.604 144.912, 191.734 147.250 M 302.447 144.276 C 301.703 146.217, 312.076 161.895, 314.143 161.954 C 317.581 162.051, 316.842 158.851, 311.673 151.252 C 306.520 143.675, 303.542 141.424, 302.447 144.276 M 153.090 145.832 C 151.752 148.332, 153.269 149.586, 155.044 147.447 C 155.943 146.363, 156.004 145.604, 155.250 144.850 C 154.497 144.097, 153.865 144.384, 153.090 145.832 M 347 150.917 C 347 152.145, 347.646 153, 348.573 153 C 349.505 153, 350.015 152.320, 349.823 151.333 C 349.337 148.824, 347 148.480, 347 150.917 M 149.345 154.543 C 149.019 155.392, 149.004 156.337, 149.310 156.643 C 150.186 157.519, 152 156.034, 152 154.441 C 152 152.522, 150.092 152.596, 149.345 154.543 M 350.154 159.552 C 350.345 160.532, 351.105 161.536, 351.846 161.782 C 352.706 162.069, 353.066 161.588, 352.846 160.448 C 352.655 159.468, 351.895 158.464, 351.154 158.218 C 350.294 157.931, 349.934 158.412, 350.154 159.552 M 332.555 159.910 C 332.208 160.472, 332.674 163.512, 333.591 166.665 C 334.508 169.819, 335.793 175.572, 336.446 179.450 C 337.439 185.342, 337.951 186.500, 339.567 186.500 C 341.291 186.500, 341.466 185.874, 341.189 180.699 C 340.750 172.526, 336.937 159.609, 334.843 159.207 C 333.932 159.032, 332.902 159.349, 332.555 159.910 M 146.667 162.667 C 145.449 163.885, 145.978 166, 147.500 166 C 148.333 166, 149 165.111, 149 164 C 149 162.008, 147.934 161.399, 146.667 162.667 M 353 169 C 353 170.111, 353.667 171, 354.500 171 C 356.183 171, 356.251 170.817, 355.393 168.582 C 354.536 166.347, 353 166.616, 353 169 M 317.341 171.553 C 317.013 172.407, 317.253 175.632, 317.873 178.720 C 318.493 181.807, 319 185.778, 319 187.544 C 319 190.903, 321.167 193.633, 322.956 192.527 C 325.062 191.226, 323.330 174.443, 320.761 171.250 C 319.400 169.558, 318.061 169.677, 317.341 171.553 M 144.400 172.400 C 144.034 173.354, 144.229 174.629, 144.834 175.234 C 145.634 176.034, 146.116 175.861, 146.600 174.600 C 146.966 173.646, 146.771 172.371, 146.166 171.766 C 145.366 170.966, 144.884 171.139, 144.400 172.400 M 179.218 173.844 C 178.486 174.309, 177.450 178.608, 176.801 183.876 C 175.790 192.090, 175.847 193.276, 177.326 194.755 C 179.804 197.233, 180.556 195.596, 181.915 184.765 C 183.317 173.589, 182.816 171.561, 179.218 173.844 M 354.559 176.905 C 354.192 177.499, 354.336 178.775, 354.879 179.742 C 355.815 181.409, 355.902 181.406, 356.566 179.683 C 357.371 177.591, 355.627 175.176, 354.559 176.905 M 143 183 C 143 185.384, 144.536 185.653, 145.393 183.418 C 146.251 181.183, 146.183 181, 144.500 181 C 143.667 181, 143 181.889, 143 183 M 355.400 186.400 C 355.034 187.354, 355.229 188.629, 355.834 189.234 C 356.634 190.034, 357.116 189.861, 357.600 188.600 C 357.966 187.646, 357.771 186.371, 357.166 185.766 C 356.366 184.966, 355.884 185.139, 355.400 186.400 M 142.667 190.667 C 141.449 191.885, 141.978 194, 143.500 194 C 144.333 194, 145 193.111, 145 192 C 145 190.008, 143.934 189.399, 142.667 190.667 M 355.380 196.452 C 354.691 198.249, 355.808 200.237, 357.069 199.457 C 358.336 198.674, 358.253 195, 356.969 195 C 356.401 195, 355.686 195.653, 355.380 196.452 M 143 201.500 C 143 202.875, 143.450 204, 144 204 C 144.550 204, 145 202.875, 145 201.500 C 145 200.125, 144.550 199, 144 199 C 143.450 199, 143 200.125, 143 201.500 M 354.500 206 C 353.771 207.180, 354.717 209, 356.059 209 C 356.577 209, 357 208.100, 357 207 C 357 204.891, 355.545 204.309, 354.500 206 M 178.733 209.255 C 178.141 210.795, 182.220 223.161, 184.433 226.539 C 186.213 229.254, 188.765 229.777, 189.601 227.597 C 189.897 226.825, 189.270 224.463, 188.207 222.347 C 187.144 220.231, 185.501 216.137, 184.557 213.250 C 183.323 209.479, 182.329 208, 181.027 208 C 180.030 208, 178.997 208.565, 178.733 209.255 M 144 210.917 C 144 212.145, 144.646 213, 145.573 213 C 146.505 213, 147.015 212.320, 146.823 211.333 C 146.337 208.824, 144 208.480, 144 210.917 M 353 216 C 353 217.100, 353.450 218, 354 218 C 354.550 218, 355 217.100, 355 216 C 355 214.900, 354.550 214, 354 214 C 353.450 214, 353 214.900, 353 216 M 146 219.917 C 146 221.145, 146.646 222, 147.573 222 C 148.505 222, 149.015 221.320, 148.823 220.333 C 148.337 217.824, 146 217.480, 146 219.917 M 350.345 224.543 C 350.019 225.392, 350.004 226.337, 350.310 226.643 C 351.186 227.519, 353 226.034, 353 224.441 C 353 222.522, 351.092 222.596, 350.345 224.543 M 149 229 C 149 230.111, 149.667 231, 150.500 231 C 152.183 231, 152.251 230.817, 151.393 228.582 C 150.536 226.347, 149 226.616, 149 229 M 347 234 C 347 236.384, 348.536 236.653, 349.393 234.418 C 350.251 232.183, 350.183 232, 348.500 232 C 347.667 232, 347 232.889, 347 234 M 152.015 236.750 C 152.024 237.162, 152.423 238.120, 152.904 238.878 C 154.013 240.630, 156.101 239.427, 155.349 237.468 C 154.777 235.977, 151.987 235.376, 152.015 236.750 M 320.892 243.250 C 319.090 245.588, 315.183 250.101, 312.210 253.279 C 307.786 258.007, 307.022 259.322, 308.007 260.508 C 309.645 262.482, 311.623 261.290, 317.617 254.717 C 324.135 247.569, 328.339 241.357, 327.536 240.059 C 326.273 238.014, 324.137 239.040, 320.892 243.250 M 343.090 241.832 C 341.752 244.332, 343.269 245.586, 345.044 243.447 C 345.943 242.363, 346.004 241.604, 345.250 240.850 C 344.497 240.097, 343.865 240.384, 343.090 241.832 M 157 245.441 C 157 246.942, 158.795 248.538, 159.590 247.743 C 160.288 247.046, 158.907 244, 157.893 244 C 157.402 244, 157 244.648, 157 245.441 M 179.667 247.667 C 178.236 249.097, 179.161 251.219, 183.053 255.442 C 188.933 261.821, 197.699 268.329, 199.487 267.643 C 202.034 266.666, 201.185 264.400, 197.250 261.671 C 195.188 260.240, 190.814 256.354, 187.531 253.035 C 181.469 246.905, 180.850 246.483, 179.667 247.667 M 338 251 C 338 253.384, 339.536 253.653, 340.393 251.418 C 341.251 249.183, 341.183 249, 339.500 249 C 338.667 249, 338 249.889, 338 251 M 162.154 253.552 C 162.345 254.532, 163.105 255.536, 163.846 255.782 C 164.706 256.069, 165.066 255.588, 164.846 254.448 C 164.655 253.468, 163.895 252.464, 163.154 252.218 C 162.294 251.931, 161.934 252.412, 162.154 253.552 M 333.160 257.240 C 331.596 258.804, 331.697 260, 333.393 260 C 334.978 260, 336.325 257.319, 335.116 256.572 C 334.678 256.301, 333.798 256.602, 333.160 257.240 M 167.530 259.951 C 166.667 261.348, 167.767 263, 169.559 263 C 171.395 263, 171.410 261.585, 169.589 260.074 C 168.624 259.273, 167.973 259.235, 167.530 259.951 M 326.971 264.535 C 325.234 266.628, 326.682 267.746, 328.620 265.809 C 329.555 264.874, 329.794 263.991, 329.209 263.629 C 328.669 263.295, 327.662 263.703, 326.971 264.535 M 174.177 267.671 C 174.355 268.586, 175.063 269.522, 175.750 269.750 C 177.589 270.363, 177.276 267.320, 175.427 266.610 C 174.331 266.190, 173.952 266.511, 174.177 267.671 M 284 272.521 C 280.975 273.807, 275.643 275.644, 272.151 276.604 C 265.990 278.299, 263.765 280.165, 265.654 282.054 C 266.890 283.290, 277.818 280.496, 285.829 276.897 C 290.453 274.820, 292.069 273.598, 291.829 272.360 C 291.350 269.892, 290.128 269.917, 284 272.521 M 319.980 271.524 C 319.284 272.362, 318.993 273.327, 319.333 273.667 C 320.060 274.393, 323 272.156, 323 270.878 C 323 269.500, 321.370 269.849, 319.980 271.524 M 181 274.393 C 181 275.895, 183.427 277.239, 184.394 276.273 C 185.099 275.568, 183.125 273, 181.878 273 C 181.395 273, 181 273.627, 181 274.393 M 218.667 274.667 C 218.300 275.033, 218 276.093, 218 277.021 C 218 280.299, 243.666 285.968, 245.448 283.084 C 246.787 280.917, 244.008 279.259, 237.872 278.565 C 234.521 278.186, 229.016 277.009, 225.639 275.951 C 222.263 274.892, 219.463 274.020, 219.417 274.013 C 219.371 274.006, 219.033 274.300, 218.667 274.667 M 312.345 277.543 C 312.019 278.392, 312.023 279.356, 312.352 279.686 C 313.217 280.550, 316.083 277.944, 315.430 276.887 C 314.576 275.506, 312.998 275.842, 312.345 277.543 M 188.218 280.154 C 188.464 280.895, 189.468 281.655, 190.448 281.846 C 191.588 282.066, 192.069 281.706, 191.782 280.846 C 191.536 280.105, 190.532 279.345, 189.552 279.154 C 188.412 278.934, 187.931 279.294, 188.218 280.154 M 305.250 281.708 C 303.918 282.197, 303.488 285.010, 304.750 284.985 C 305.163 284.976, 306.171 284.545, 306.992 284.026 C 308.719 282.934, 307.248 280.976, 305.250 281.708 M 196.218 285.154 C 196.464 285.895, 197.468 286.655, 198.448 286.846 C 199.588 287.066, 200.069 286.706, 199.782 285.846 C 199.536 285.105, 198.532 284.345, 197.552 284.154 C 196.412 283.934, 195.931 284.294, 196.218 285.154 M 296.667 286.667 C 296.300 287.033, 296 287.949, 296 288.702 C 296 289.767, 296.450 289.830, 298.028 288.985 C 299.143 288.388, 299.792 287.472, 299.469 286.950 C 298.783 285.841, 297.611 285.722, 296.667 286.667 M 204.496 289.007 C 203.711 290.276, 206.511 291.420, 208.059 290.464 C 208.901 289.943, 208.847 289.518, 207.857 288.890 C 206.069 287.758, 205.250 287.786, 204.496 289.007 M 287.459 291.067 C 287.096 291.653, 287.050 292.384, 287.357 292.690 C 288.179 293.513, 291 292.229, 291 291.031 C 291 289.674, 288.303 289.701, 287.459 291.067 M 213.404 292.155 C 213.041 292.743, 213.364 293.616, 214.122 294.096 C 216.104 295.352, 217 295.200, 217 293.607 C 217 291.837, 214.279 290.739, 213.404 292.155 M 278.667 293.667 C 277.399 294.934, 278.008 296, 280 296 C 281.111 296, 282 295.333, 282 294.500 C 282 292.978, 279.885 292.449, 278.667 293.667 M 222.688 294.646 C 221.383 295.950, 222.006 297, 224.083 297 C 225.247 297, 225.992 296.476, 225.771 295.813 C 225.284 294.351, 223.614 293.719, 222.688 294.646 M 270.250 295.718 C 268.277 296.426, 268.794 298, 271 298 C 272.100 298, 273 297.577, 273 297.059 C 273 295.779, 271.763 295.176, 270.250 295.718 M 231.496 297.007 C 230.736 298.236, 233.488 299.434, 234.968 298.520 C 235.554 298.158, 235.774 297.443, 235.457 296.931 C 234.694 295.696, 232.277 295.742, 231.496 297.007 M 241 298.427 C 241 299.354, 241.855 300, 243.083 300 C 245.520 300, 245.176 297.663, 242.667 297.177 C 241.680 296.985, 241 297.495, 241 298.427 M 259.496 298.007 C 258.741 299.228, 261.484 300.437, 262.952 299.530 C 263.528 299.173, 264 298.459, 264 297.941 C 264 296.680, 260.282 296.734, 259.496 298.007 M 250 299 C 250 299.550, 250.900 300, 252 300 C 253.100 300, 254 299.550, 254 299 C 254 298.450, 253.100 298, 252 298 C 250.900 298, 250 298.450, 250 299 M 190 419 C 190 424.556, 190.310 426, 191.500 426 C 192.433 426, 193 425.056, 193 423.500 C 193 421.558, 193.513 421, 195.300 421 C 198.166 421, 200 419.244, 200 416.500 C 200 413.400, 198.071 412, 193.800 412 C 190 412, 190 412, 190 419 M 205.200 413.200 C 204.540 413.860, 204 416.796, 204 419.725 C 204 424.479, 204.267 425.151, 206.491 425.997 C 211.036 427.725, 214 424.963, 214 419 C 214 414.363, 212.368 412, 209.165 412 C 207.644 412, 205.860 412.540, 205.200 413.200 M 218 419 C 218 424.411, 218.325 426, 219.434 426 C 220.243 426, 221.024 424.804, 221.227 423.250 C 221.588 420.500, 221.588 420.500, 222.954 423.250 C 223.714 424.779, 225.149 426, 226.186 426 C 227.922 426, 227.948 425.799, 226.552 423.101 C 225.232 420.548, 225.229 420.055, 226.526 418.978 C 229.863 416.209, 226.788 412, 221.429 412 C 218 412, 218 412, 218 419 M 231 413.500 C 231 414.333, 231.889 415, 233 415 C 234.758 415, 235 415.667, 235 420.500 C 235 424.722, 235.348 426, 236.500 426 C 237.652 426, 238 424.722, 238 420.500 C 238 415.667, 238.242 415, 240 415 C 241.111 415, 242 414.333, 242 413.500 C 242 412.348, 240.722 412, 236.500 412 C 232.278 412, 231 412.348, 231 413.500 M 245 419 C 245 425.333, 245.190 426, 247 426 C 248.467 426, 249 425.333, 249 423.500 C 249 421.500, 249.500 421, 251.500 421 C 253.056 421, 254 420.433, 254 419.500 C 254 418.567, 253.056 418, 251.500 418 C 249.944 418, 249 417.433, 249 416.500 C 249 415.500, 250 415, 252 415 C 254 415, 255 414.500, 255 413.500 C 255 412.367, 253.778 412, 250 412 C 245 412, 245 412, 245 419 M 260.200 413.200 C 259.540 413.860, 259 416.796, 259 419.725 C 259 424.479, 259.267 425.151, 261.491 425.997 C 266.036 427.725, 269 424.963, 269 419 C 269 414.363, 267.368 412, 264.165 412 C 262.644 412, 260.860 412.540, 260.200 413.200 M 273 419 C 273 426, 273 426, 277.500 426 C 280.833 426, 282 425.611, 282 424.500 C 282 423.500, 281 423, 279 423 C 276.030 423, 276 422.944, 276 417.500 C 276 413.278, 275.652 412, 274.500 412 C 273.310 412, 273 413.444, 273 419 M 287 413.500 C 287 414.325, 287.675 415, 288.500 415 C 289.611 415, 290 416.167, 290 419.500 C 290 422.833, 289.611 424, 288.500 424 C 287.675 424, 287 424.450, 287 425 C 287 425.550, 289.025 426, 291.500 426 C 293.975 426, 296 425.550, 296 425 C 296 424.450, 295.325 424, 294.500 424 C 293.389 424, 293 422.833, 293 419.500 C 293 416.167, 293.389 415, 294.500 415 C 295.325 415, 296 414.325, 296 413.500 C 296 412.389, 294.833 412, 291.500 412 C 288.167 412, 287 412.389, 287 413.500 M 301.200 413.200 C 300.540 413.860, 300 416.550, 300 419.177 C 300 423.169, 300.411 424.223, 302.500 425.592 C 304.816 427.109, 305.184 427.109, 307.500 425.592 C 309.589 424.223, 310 423.169, 310 419.177 C 310 413.775, 308.763 412, 305 412 C 303.570 412, 301.860 412.540, 301.200 413.200 M 193 416.500 C 193 417.333, 193.889 418, 195 418 C 196.111 418, 197 417.333, 197 416.500 C 197 415.667, 196.111 415, 195 415 C 193.889 415, 193 415.667, 193 416.500 M 207.193 419.172 C 207.632 425.139, 210 425.485, 210 419.583 C 210 416.101, 209.626 415, 208.443 415 C 207.232 415, 206.954 415.930, 207.193 419.172 M 221 416.500 C 221 417.325, 221.675 418, 222.500 418 C 223.325 418, 224 417.325, 224 416.500 C 224 415.675, 223.325 415, 222.500 415 C 221.675 415, 221 415.675, 221 416.500 M 262.193 419.172 C 262.632 425.139, 265 425.485, 265 419.583 C 265 416.101, 264.626 415, 263.443 415 C 262.232 415, 261.954 415.930, 262.193 419.172 M 303.193 419.250 C 303.408 422.224, 303.950 423.500, 305 423.500 C 306.050 423.500, 306.592 422.224, 306.807 419.250 C 307.079 415.493, 306.870 415, 305 415 C 303.130 415, 302.921 415.493, 303.193 419.250" stroke="none" fill="#04f4f4" fill-rule="evenodd"/></svg>